<svg xmlns="http://www.w3.org/2000/svg" width="50" height="24.267" viewBox="0 0 50 24.267">
  <g id="Grupo_5374" data-name="Grupo 5374" transform="translate(-1182 -1843)">
    <g id="Shops" transform="translate(1182.262 1857.892)" style="isolation: isolate">
      <g id="Grupo_5372" data-name="Grupo 5372" style="isolation: isolate">
        <path id="Trazado_26264" data-name="Trazado 26264" d="M4.748,64.336a4.329,4.329,0,0,1-1.665-.306,3.205,3.205,0,0,1-1.225-.869,2.931,2.931,0,0,1-.648-1.339l.737-.124a2.381,2.381,0,0,0,.99,1.417,3.155,3.155,0,0,0,1.829.519,3.324,3.324,0,0,0,1.281-.23,2.026,2.026,0,0,0,.869-.654,1.608,1.608,0,0,0,.313-.985,1.438,1.438,0,0,0-.146-.681,1.4,1.4,0,0,0-.379-.452,2.184,2.184,0,0,0-.494-.287,4.9,4.9,0,0,0-.494-.177l-2.263-.675a3.9,3.9,0,0,1-.8-.329,2.359,2.359,0,0,1-.592-.456,1.843,1.843,0,0,1-.37-.591,2.032,2.032,0,0,1-.128-.736,2.126,2.126,0,0,1,.388-1.269,2.564,2.564,0,0,1,1.065-.848,3.784,3.784,0,0,1,1.56-.3,3.873,3.873,0,0,1,1.594.327,2.96,2.96,0,0,1,1.744,2.3l-.744.133a2.252,2.252,0,0,0-.446-1.081,2.427,2.427,0,0,0-.916-.72,2.938,2.938,0,0,0-1.238-.256,2.761,2.761,0,0,0-1.16.219,1.967,1.967,0,0,0-.79.607,1.4,1.4,0,0,0-.288.863,1.134,1.134,0,0,0,.273.8,1.884,1.884,0,0,0,.668.466,6.72,6.72,0,0,0,.76.274l1.813.537q.257.075.613.213a3.037,3.037,0,0,1,.7.391,2.013,2.013,0,0,1,.571.669,2.139,2.139,0,0,1,.229,1.041,2.488,2.488,0,0,1-.231,1.088,2.256,2.256,0,0,1-.663.815,3.135,3.135,0,0,1-1.019.512A4.44,4.44,0,0,1,4.748,64.336Z" transform="translate(-1.21 -54.961)" fill="#fff"/>
        <path id="Trazado_26265" data-name="Trazado 26265" d="M9.05,64.111v-9h.719v4.151h5.212V55.11h.725v9h-.725V59.96H9.769v4.151Z" transform="translate(1.38 -54.924)" fill="#fff"/>
        <path id="Trazado_26266" data-name="Trazado 26266" d="M20.9,64.336a4.03,4.03,0,0,1-2.256-.6,3.68,3.68,0,0,1-1.375-1.654,6.651,6.651,0,0,1,0-4.874,3.687,3.687,0,0,1,1.375-1.654,4.039,4.039,0,0,1,2.256-.6,4.024,4.024,0,0,1,2.253.6,3.7,3.7,0,0,1,1.371,1.654,6.634,6.634,0,0,1,0,4.874,3.688,3.688,0,0,1-1.371,1.654A4.014,4.014,0,0,1,20.9,64.336Zm0-.706a3.148,3.148,0,0,0,1.844-.5,3.072,3.072,0,0,0,1.1-1.41,5.984,5.984,0,0,0,0-4.136,3.049,3.049,0,0,0-1.1-1.406,3.176,3.176,0,0,0-1.844-.507,3.133,3.133,0,0,0-1.841.5,3.061,3.061,0,0,0-1.1,1.409,5.609,5.609,0,0,0-.381,2.072,5.184,5.184,0,0,0,.36,2.065,3.078,3.078,0,0,0,1.115,1.406A3.2,3.2,0,0,0,20.9,63.63Z" transform="translate(3.992 -54.961)" fill="#fff"/>
        <path id="Trazado_26267" data-name="Trazado 26267" d="M25.779,64.111v-9h3.394c.087,0,.182,0,.285.01a2.78,2.78,0,0,1,.321.04,2.426,2.426,0,0,1,1.9,1.435,3.238,3.238,0,0,1,0,2.525,2.426,2.426,0,0,1-1.9,1.435c-.111.016-.219.029-.321.036s-.2.014-.285.014H26.5v3.506ZM26.5,59.9H29.16c.075,0,.161,0,.259-.011s.2-.021.3-.039a1.664,1.664,0,0,0,.811-.4,1.869,1.869,0,0,0,.489-.715,2.434,2.434,0,0,0,.163-.881,2.4,2.4,0,0,0-.163-.878,1.874,1.874,0,0,0-.489-.714,1.675,1.675,0,0,0-.811-.4,2.46,2.46,0,0,0-.3-.044c-.1-.009-.184-.012-.259-.012H26.5Z" transform="translate(6.882 -54.924)" fill="#fff"/>
        <path id="Trazado_26268" data-name="Trazado 26268" d="M36.286,64.336a4.328,4.328,0,0,1-1.665-.306,3.206,3.206,0,0,1-1.225-.869,2.944,2.944,0,0,1-.647-1.339l.738-.124a2.383,2.383,0,0,0,.991,1.417,3.149,3.149,0,0,0,1.829.519,3.322,3.322,0,0,0,1.28-.23,2.019,2.019,0,0,0,.869-.654,1.608,1.608,0,0,0,.313-.985,1.438,1.438,0,0,0-.146-.681,1.409,1.409,0,0,0-.377-.452,2.166,2.166,0,0,0-.5-.287,4.8,4.8,0,0,0-.494-.177l-2.262-.675a3.925,3.925,0,0,1-.8-.329,2.382,2.382,0,0,1-.593-.456,1.84,1.84,0,0,1-.369-.591,2.005,2.005,0,0,1-.129-.736,2.134,2.134,0,0,1,.388-1.269,2.564,2.564,0,0,1,1.065-.848,3.792,3.792,0,0,1,1.56-.3,3.869,3.869,0,0,1,1.594.327,2.96,2.96,0,0,1,1.744,2.3l-.743.133a2.242,2.242,0,0,0-.447-1.081,2.433,2.433,0,0,0-.915-.72,2.938,2.938,0,0,0-1.238-.256,2.753,2.753,0,0,0-1.16.219,1.963,1.963,0,0,0-.791.607,1.4,1.4,0,0,0-.286.863,1.133,1.133,0,0,0,.271.8,1.906,1.906,0,0,0,.667.466,6.809,6.809,0,0,0,.76.274l1.813.537q.257.075.613.213a3.012,3.012,0,0,1,.7.391,2.016,2.016,0,0,1,.573.669,2.153,2.153,0,0,1,.229,1.041,2.471,2.471,0,0,1-.233,1.088,2.265,2.265,0,0,1-.661.815,3.142,3.142,0,0,1-1.02.512A4.44,4.44,0,0,1,36.286,64.336Z" transform="translate(9.215 -54.961)" fill="#fff"/>
      </g>
    </g>
    <g id="Grupo_4" data-name="Grupo 4" transform="translate(1182 1843)">
      <path id="Trazado_128" data-name="Trazado 128" d="M17.89,52.1H16.265L14.033,48.79h-.721L13.3,52.1H11.9v-9.59h1.406v5.25h.7l2.031-2.459H17.67l-2.554,3Z" transform="translate(2.561 -42.515)" fill="#fff"/>
      <path id="Trazado_129" data-name="Trazado 129" d="M6.764,50.59v1.119H6.738c-.891.082-2.125.125-3.678.125-1.366,0-2.06-.641-2.06-1.908v-6.22H2.44v6.027a.949.949,0,0,0,.185.664.9.9,0,0,0,.656.191Z" transform="translate(-1 -42.217)" fill="#fff"/>
      <path id="Trazado_130" data-name="Trazado 130" d="M12.321,44.748v6.8H11.2l-.093-.9-.1.075a4.769,4.769,0,0,1-2.75,1,1.669,1.669,0,0,1-1.871-1.436,1.65,1.65,0,0,1,0-.458V44.748h1.4v4.7a1.233,1.233,0,0,0,.2.845.976.976,0,0,0,.741.231,4.757,4.757,0,0,0,2.173-.863l.036-.022V44.748Z" transform="translate(0.341 -41.957)" fill="#fff"/>
      <path id="Trazado_131" data-name="Trazado 131" d="M22.346,45.108a1.9,1.9,0,0,0-.75-.375,4.084,4.084,0,0,0-1.08-.125,31.756,31.756,0,0,0-3.234.18h-.025v1.046h.031a21.948,21.948,0,0,1,2.5-.045c.177,0,.327.009.446.009a1.658,1.658,0,0,1,1.031.228,1.1,1.1,0,0,1,.28.834v.5H18.867a2.087,2.087,0,0,0-1.429.449,1.612,1.612,0,0,0-.507,1.266v.7a1.817,1.817,0,0,0,.57,1.43,2.208,2.208,0,0,0,1.517.5,3.65,3.65,0,0,0,2.57-1.054l.1-.1.148,1.027h1.1V46.859A2.219,2.219,0,0,0,22.346,45.108Zm-.808,4.485-.026.022a3.394,3.394,0,0,1-2.224.9,1.037,1.037,0,0,1-.725-.214.926.926,0,0,1-.226-.7v-.364a.94.94,0,0,1,.173-.61.788.788,0,0,1,.6-.216h2.433Z" transform="translate(4.202 -41.992)" fill="#fff"/>
      <path id="Trazado_132" data-name="Trazado 132" d="M33.633,45.108a1.9,1.9,0,0,0-.75-.375,4.071,4.071,0,0,0-1.077-.125,31.78,31.78,0,0,0-3.235.18h-.025v1.046h.031a22.432,22.432,0,0,1,2.494-.045c.178,0,.327.009.446.009a1.658,1.658,0,0,1,1.031.228,1.1,1.1,0,0,1,.28.834v.5H30.151a2.087,2.087,0,0,0-1.429.449,1.612,1.612,0,0,0-.507,1.266v.7a1.817,1.817,0,0,0,.57,1.43,2.211,2.211,0,0,0,1.519.5,3.658,3.658,0,0,0,2.569-1.054l.1-.1.147,1.027h1.105V46.859A2.209,2.209,0,0,0,33.633,45.108Zm-.807,4.485-.026.022a3.4,3.4,0,0,1-2.225.9,1.037,1.037,0,0,1-.725-.214.927.927,0,0,1-.226-.7v-.364a.94.94,0,0,1,.173-.61.788.788,0,0,1,.6-.216h2.432Z" transform="translate(7.888 -41.992)" fill="#fff"/>
      <path id="Trazado_133" data-name="Trazado 133" d="M26.465,44.606a3.868,3.868,0,0,0-1.516.334,3.977,3.977,0,0,0-1.154.739l-.111.1-.093-1H22.43V54.33h1.384V51.112l.11.061a4.544,4.544,0,0,0,2.262.571,2.362,2.362,0,0,0,1.971-.805,4.509,4.509,0,0,0,.625-2.719C28.788,45.822,28,44.606,26.465,44.606Zm.55,5.463a1.363,1.363,0,0,1-1.185.463,9.057,9.057,0,0,1-1.959-.34l-.055-.014V46.789l.031-.023a4.108,4.108,0,0,1,2.164-.944,1.082,1.082,0,0,1,1.031.525,4.032,4.032,0,0,1,.309,1.864,3.542,3.542,0,0,1-.335,1.855Z" transform="translate(6.013 -41.992)" fill="#fff"/>
      <path id="Trazado_134" data-name="Trazado 134" d="M40.367,44.748l-2.625,7.1a3.334,3.334,0,0,1-3.125,2.534h-.025l-.147-.934.025-.007A3.138,3.138,0,0,0,35.7,52.8a3.013,3.013,0,0,0,.726-1.042l.08-.205h-.6l-2.536-6.8h1.5l1.906,5.734h.152l1.934-5.734Z" transform="translate(9.633 -41.957)" fill="#fff"/>
    </g>
  </g>
</svg>
